# xmcd
#
# Track frame offsets:
#	150
#	13586
#	26295
#	40613
#	57102
#	70411
#	82405
#	98705
#	108051
#	122629
#	138580
#	152946
#	165722
#	177090
#	190140
#
# Disc length: 2711 seconds
#
# Revision: 0
# Processed by: cddbd v1.5.2PL0 Copyright (c) Steve Scherf et al.
# Submitted via: EasyCDDAExtractor 2011.0.0.0
#
DISCID=bf0a950f
DTITLE=김인규 - 이미자 색소폰골드
DYEAR=2014
DGENRE=Blues
TTITLE0=동백 아가씨
TTITLE1=섬마을 선생님
TTITLE2=여자의 일생
TTITLE3=님이라 부르리까
TTITLE4=흑산도 아가씨
TTITLE5=아씨
TTITLE6=기러기 아빠
TTITLE7=열아홉 순정
TTITLE8=서울이여 안녕
TTITLE9=사랑 했는데
TTITLE10=황포 돛대
TTITLE11=그리움은 가슴마다
TTITLE12=황혼의 블루스
TTITLE13=울어라 열풍아
TTITLE14=한 번 준 마음인데
EXTD=
EXTT0=
EXTT1=
EXTT2=
EXTT3=
EXTT4=
EXTT5=
EXTT6=
EXTT7=
EXTT8=
EXTT9=
EXTT10=
EXTT11=
EXTT12=
EXTT13=
EXTT14=
PLAYORDER=
